<?xml version="1.0" encoding="iso-8859-1"?>
<!-- Generator: Adobe Illustrator 19.0.0, SVG Export Plug-In . SVG Version: 6.00 Build 0)  -->
<svg version="1.1" id="Layer_1" xmlns="http://www.w3.org/2000/svg" xmlns:xlink="http://www.w3.org/1999/xlink" x="0px" y="0px"
	 viewBox="0 0 512 512" style="enable-background:new 0 0 512 512;" xml:space="preserve">
<circle style="fill:#FFC61B;" cx="256" cy="256" r="256"/>
<path style="fill:#EAA22F;" d="M507.814,302.29L388.36,182.837l-0.888,5.525l-46.139-46.14L218.65,305.993l-39.665,82.763
	L298.67,508.442C404.654,490.656,488.55,407.764,507.814,302.29z"/>
<path style="fill:#386895;" d="M355.556,258.155c-24.716,0-44.822-20.106-44.822-44.822s20.106-44.822,44.822-44.822
	s44.822,20.106,44.822,44.822S380.271,258.155,355.556,258.155z M355.556,196.094c-9.506,0-17.239,7.733-17.239,17.239
	c0,9.506,7.733,17.239,17.239,17.239c9.506,0,17.239-7.733,17.239-17.239S365.061,196.094,355.556,196.094z"/>
<path style="fill:#273B7A;" d="M311.022,398.222H200.98c-16.743,0-30.313-13.571-30.313-30.311V142.222h170.667v225.689
	C341.333,384.652,327.763,398.222,311.022,398.222z"/>
<path style="fill:#121149;" d="M254.852,142.222v256h56.17c16.741,0,30.311-13.572,30.311-30.311V142.222H254.852z"/>
<circle style="fill:#FF7F4F;" cx="256" cy="256" r="43.96"/>
<path style="fill:#D35933;" d="M256,212.04c-0.384,0-0.765,0.019-1.148,0.029v87.861c0.383,0.01,0.764,0.029,1.148,0.029
	c24.278,0,43.96-19.682,43.96-43.96S280.278,212.04,256,212.04z"/>
<g>
</g>
<g>
</g>
<g>
</g>
<g>
</g>
<g>
</g>
<g>
</g>
<g>
</g>
<g>
</g>
<g>
</g>
<g>
</g>
<g>
</g>
<g>
</g>
<g>
</g>
<g>
</g>
<g>
</g>
</svg>
